<svg width="437" height="205" viewBox="0 0 437 205" fill="none" xmlns="http://www.w3.org/2000/svg">
<path d="M62.7987 47.4155C64.7362 48.9649 66.3454 50.8849 67.5322 53.0634C68.5611 55.0689 69.0959 57.2911 69.0921 59.5451C69.0683 63.3157 67.6725 66.9487 65.1654 69.7652C63.3382 71.7609 61.1023 73.3393 58.61 74.3929C56.1177 75.4464 53.4275 75.9504 50.7229 75.8703C47.1728 76.0317 42.1703 76.0586 35.7424 75.8703L13.9307 75.5476V73.2077C13.9307 69.3349 13.9307 67.3984 13.9307 63.5256V44.4302L14.0382 23.748C14.0382 17.2394 14.0382 13.9583 14.0382 7.44971L37.652 8.63308C43.5688 8.92893 47.63 9.22477 49.8353 9.54751C52.1877 9.90204 54.4898 10.534 56.6935 11.4302C59.2213 12.4591 61.5789 13.8646 63.6862 15.5989C65.6814 17.2616 67.366 19.2649 68.6618 21.5157C70.5095 24.7946 71.4386 28.5111 71.3513 32.2737C71.3971 35.5404 70.6005 38.7638 69.0383 41.6331C67.6093 44.1617 65.4285 46.1827 62.7987 47.4155ZM59.1679 48.572C58.0111 48.8257 56.8287 48.943 55.6446 48.9216C53.6773 48.9565 51.7366 48.4643 50.0236 47.4962C49.398 47.1669 48.8715 46.6768 48.498 46.0765C48.1246 45.4762 47.9178 44.7873 47.8989 44.0806C47.8989 43.3275 48.1141 42.9779 48.5982 42.9779C49.1145 43.0538 49.6093 43.2371 50.0505 43.5158C52.0487 44.725 54.3314 45.3838 56.6666 45.4253C58.639 45.5632 60.6092 45.129 62.341 44.1749C64.0727 43.2208 65.4923 41.7873 66.4295 40.0463C67.8848 37.6112 68.6214 34.8139 68.5542 31.9779C68.5897 27.4546 66.8293 23.102 63.6593 19.8751C61.3745 17.4188 58.547 15.5307 55.4026 14.3617C51.5174 12.9998 47.4426 12.2556 43.3268 12.1563H40.9062L40.6373 41.7407L40.9062 72.9119L44.8598 73.0464C48.2805 73.1742 51.7053 72.9489 55.0798 72.374C57.2911 71.9739 59.3749 71.0519 61.1581 69.6845C62.7457 68.5008 64.0295 66.9571 64.9039 65.1803C65.7782 63.4035 66.2182 61.4445 66.1874 59.4644C66.2322 57.3655 65.662 55.2994 64.5469 53.5207C63.1294 51.5045 61.295 49.8168 59.1679 48.572Z" fill="#FCFCFC"/>
<path d="M105.48 11.9949C105.48 21.8385 105.48 26.7871 105.292 36.6307C105.292 46.9852 105.292 52.149 105.292 62.5035L105.427 75.7089C106.906 75.8434 108.116 75.9241 109.353 75.951C119.645 76.0765 126.539 73.6201 130.035 68.5818C132.093 65.2278 133.311 61.4265 133.586 57.5011C134.177 52.6959 134.473 43.9371 134.473 31.2248C134.473 26.2492 134.473 23.7749 134.473 18.7993L134.312 14.9534C134.312 13.3397 134.93 12.5597 136.194 12.6135C137.458 12.6673 137.835 13.4742 137.835 15.0341C137.835 15.9485 137.835 17.1588 137.701 18.7187C137.701 26.1685 137.512 29.9069 137.351 37.3568C137.19 44.8067 137.109 50.5353 136.974 53.3593C136.833 56.01 136.536 58.6502 136.087 61.2664C135.394 65.8731 133.179 70.1151 129.793 73.3153C125.571 77.1613 118.39 79.0439 108.278 78.9094C99.3484 78.9094 92.5978 77.3764 88.0526 74.7138C84.2798 72.3555 81.5556 68.6398 80.4413 64.3324C79.7628 62.0953 79.3653 59.7825 79.2579 57.4473C79.1234 55.1074 79.0697 47.9265 79.0428 35.9314C79.0428 25.8189 79.0428 20.7627 78.8545 10.6233L105.48 11.9949Z" fill="#FCFCFC"/>
<path d="M200.392 46.6632V39.1326C200.392 34.3453 200.392 31.9517 200.392 27.1644C200.392 24.9859 200.392 23.8832 200.392 21.7854V18.2622C200.392 16.6485 200.93 15.8685 202.006 15.9223C202.263 15.9084 202.52 15.9574 202.754 16.0652C202.989 16.173 203.193 16.3363 203.35 16.5409C203.653 17.2155 203.782 17.9551 203.727 18.6925V19.338C203.727 19.9565 203.727 21.0054 203.727 22.4309C203.727 28.5091 203.727 31.5482 203.539 37.5996V51.5042C203.539 57.3673 203.539 60.2989 203.539 66.1351C203.539 71.9713 203.539 74.9566 203.7 80.8197C197.649 76.8661 188.8 71.3796 177.128 64.1717C165.455 56.9639 155.827 51.1008 148.592 46.959V49.2451C148.754 58.8197 148.861 63.6338 149.023 73.2353V76.4358C149.023 77.7537 148.431 78.426 147.248 78.3991C146.064 78.3722 145.446 77.5654 145.446 75.8979V72.6436C145.446 70.5458 145.446 69.4969 145.446 67.2647C145.446 57.717 145.446 52.9566 145.634 43.4089C145.634 30.5262 145.419 24.0983 145.284 11.135C157.36 19.7683 175.675 31.7634 200.392 46.6632Z" fill="#FCFCFC"/>
<path d="M266.824 48.8142V41.5795C266.824 36.9535 266.824 34.6675 266.824 30.0685V24.6895V21.5159C266.824 19.956 267.362 19.2029 268.437 19.2567C268.693 19.2373 268.949 19.2811 269.184 19.3843C269.418 19.4875 269.624 19.6469 269.782 19.8484C270.084 20.4948 270.214 21.2081 270.159 21.9193V22.5379C270.159 23.1296 270.159 24.1247 270.159 25.5232C270.159 31.3594 270.159 34.2641 269.997 40.1002V53.5477C269.997 59.1687 269.997 61.9927 269.997 67.6137C269.997 73.2348 269.997 76.0856 270.159 81.7066C264.107 77.9145 255.259 72.6431 243.587 65.5697C231.914 58.4964 222.259 53.1174 215.159 49.0294V51.1003C215.32 60.3521 215.401 64.9511 215.589 74.203V77.269C215.589 78.5599 214.997 79.2054 213.814 79.1785C212.631 79.1516 212.012 78.3717 212.012 76.7849V73.6382V68.6895C212.012 59.5184 212.012 54.9193 212.2 45.7213C212.2 33.3496 211.985 27.1638 211.851 14.7653C223.792 22.8875 242.054 34.4523 266.824 48.8142Z" fill="#FCFCFC"/>
<path d="M306.172 21.9458V24.9043L305.903 48.0877L306.172 79.716L279.277 79.3395L279.546 44.1879C279.546 35.6084 279.358 31.3052 279.25 22.672V20.6011L306.172 21.9458Z" fill="#FCFCFC"/>
<path d="M343.151 41.9019C343.151 43.166 343.151 44.5914 343.151 46.5279V49.0022C343.151 60.4325 343.34 66.1342 343.474 77.5377H358.401H368.971C370.692 77.5377 371.66 78.0487 371.66 79.0169C371.66 79.9851 371.203 80.281 370.315 80.3616H366.658L316.633 79.6624V77.4839C316.633 71.8629 316.633 69.0658 316.633 63.4448C316.633 57.8237 316.633 54.4081 316.821 48.3836C316.66 37.9484 316.606 32.7308 316.472 22.2687L363.081 24.7699C364.269 24.7986 365.454 24.8974 366.631 25.0657C366.943 25.1417 367.219 25.3274 367.406 25.5889C367.594 25.8505 367.681 26.1706 367.653 26.4912C367.653 27.4325 367.007 27.8628 365.716 27.809H365.42L343.34 26.5181C343.34 31.6281 343.34 34.1831 343.151 39.32L347.966 39.5621L363.376 39.9117H366.765C367.596 39.8998 368.423 40.0271 369.213 40.2883C369.415 40.4068 369.579 40.5818 369.684 40.7919C369.789 41.0021 369.831 41.2382 369.804 41.4716C369.804 42.5474 368.836 43.0315 366.9 42.9777L363.43 42.7357L343.151 41.9019Z" fill="#FCFCFC"/>
<path d="M376.205 71.2979C376.944 71.4255 377.608 71.8293 378.061 72.4275C382.752 77.0426 388.994 79.7462 395.569 80.0119C399.012 80.0119 400.733 79.1243 400.733 77.3224C400.6 75.7983 399.966 74.3611 398.931 73.2343C397.712 71.7282 394.834 68.6891 390.298 64.117C386.131 60.097 382.299 55.7435 378.841 51.0998C376.536 48.0519 375.213 44.3747 375.048 40.557C375.065 38.1133 375.748 35.7204 377.022 33.6354C378.297 31.5505 380.116 29.8522 382.283 28.7233C387.593 25.7211 393.69 24.4077 399.765 24.958C404.428 25.1386 409.005 26.2736 413.212 28.293C414.639 29.0178 415.968 29.9216 417.166 30.9825C418.269 31.9238 418.806 32.7037 418.806 33.2954C418.804 33.4539 418.761 33.6091 418.681 33.7459C418.601 33.8826 418.487 33.9961 418.349 34.0754C418.087 34.3001 417.753 34.4241 417.408 34.425C416.558 34.2009 415.791 33.7336 415.203 33.0803C413.307 31.4591 411.14 30.1846 408.802 29.315C406.431 28.3673 403.926 27.7956 401.379 27.6206C400.136 27.512 398.887 27.7543 397.775 28.3199C397.364 28.51 397.017 28.8137 396.774 29.195C396.531 29.5763 396.402 30.0193 396.403 30.4715C396.56 31.9613 397.149 33.3728 398.097 34.5326C399.867 36.8458 401.809 39.0215 403.907 41.0412C409.623 46.3797 414.927 52.1427 419.775 58.2808C421.641 60.8443 422.699 63.9066 422.814 67.0754C422.803 69.4842 422.052 71.8313 420.662 73.7991C419.119 75.9817 417.058 77.7469 414.665 78.9361C409.116 81.6161 402.99 82.8819 396.833 82.6207C390.804 82.6652 384.888 80.9855 379.782 77.7796C376.339 75.5742 374.618 73.8529 374.618 72.6427C374.622 72.4593 374.668 72.2793 374.752 72.1163C374.836 71.9532 374.956 71.8113 375.102 71.7013C375.251 71.5649 375.424 71.4591 375.613 71.3899C375.803 71.3206 376.004 71.2894 376.205 71.2979Z" fill="#FCFCFC"/>
<path d="M130.439 163.844C132.376 165.198 133.992 166.96 135.172 169.008C136.223 170.88 136.77 172.993 136.759 175.14C136.686 178.86 135.295 182.435 132.833 185.225C131 187.28 128.772 188.945 126.281 190.119C123.79 191.292 121.088 191.952 118.336 192.056C114.786 192.406 109.784 192.756 103.356 193.078L81.5439 194.181V191.895C81.5439 188.157 81.5439 186.301 81.5439 182.536L81.8667 164.059C81.8667 155.99 81.8667 152.037 81.6784 143.995C81.6784 137.729 81.6784 134.582 81.6784 128.289L105.292 127.966C111.182 127.966 115.243 127.966 117.476 127.966C119.799 128.15 122.092 128.61 124.307 129.338C126.824 130.157 129.194 131.374 131.326 132.941C133.342 134.393 135.058 136.219 136.383 138.32C138.144 141.206 139.116 144.504 139.201 147.884C139.286 151.264 138.481 154.607 136.867 157.577C135.408 160.269 133.167 162.454 130.439 163.844ZM126.889 165.188C125.739 165.506 124.557 165.696 123.366 165.753C121.432 165.917 119.489 165.555 117.744 164.704C117.122 164.449 116.587 164.018 116.205 163.464C115.823 162.91 115.61 162.257 115.593 161.585C115.593 160.867 115.835 160.491 116.319 160.455C116.828 160.495 117.323 160.641 117.771 160.885C119.805 161.928 122.077 162.42 124.361 162.311C126.358 162.315 128.32 161.783 130.042 160.771C131.764 159.759 133.183 158.303 134.15 156.555C135.578 154.177 136.314 151.448 136.275 148.675C136.302 146.546 135.879 144.434 135.036 142.479C134.193 140.524 132.947 138.768 131.38 137.325C129.046 135.053 126.194 133.382 123.07 132.457C119.131 131.375 115.048 130.912 110.967 131.086H108.546C108.546 142.489 108.385 148.191 108.304 159.594C108.304 171.616 108.304 177.641 108.546 189.663H112.527C115.968 189.57 119.391 189.138 122.747 188.372C124.962 187.849 127.037 186.849 128.825 185.44C130.385 184.245 131.647 182.705 132.515 180.942C133.383 179.179 133.832 177.239 133.828 175.274C133.844 173.293 133.243 171.356 132.106 169.734C130.724 167.852 128.942 166.3 126.889 165.188Z" fill="#FCFCFC"/>
<path d="M174.816 123.286C188.909 149.616 195.956 162.499 210.049 187.834L179.496 189.34C177.775 186.086 176.807 184.472 175.247 181.272L160.481 181.944L147.491 182.482H145.286C144.129 184.795 143.565 185.978 142.408 188.318C141.891 189.456 141.288 190.552 140.606 191.599C140.461 191.801 140.272 191.967 140.053 192.083C139.833 192.2 139.59 192.265 139.342 192.272C138.347 192.272 137.836 191.895 137.836 190.954C137.981 190.137 138.273 189.354 138.697 188.641C139.261 187.511 141.386 183.773 144.721 177.48C155.479 158.061 160.858 148.487 171.374 129.634L174.816 123.286ZM161.181 153.758C158.088 159.137 156.555 162.042 153.462 167.609L147.33 179.066L160.455 178.69L173.633 177.937C168.657 168.335 166.156 163.494 161.181 153.758Z" fill="#FCFCFC"/>
<path d="M251.224 138.535L257.786 151.553C261.578 159.002 264.886 165.269 267.71 170.379C270.534 175.489 272.632 179.066 274.004 181.137C274.631 181.929 275.08 182.846 275.322 183.826C275.322 184.902 274.568 185.494 273.035 185.575C272.764 185.614 272.486 185.585 272.228 185.491C271.97 185.397 271.739 185.241 271.556 185.037C270.714 183.651 269.942 182.224 269.243 180.76C268.141 178.555 267.603 177.479 266.554 175.381C264.806 171.939 263.864 170.218 262.224 166.748C260.583 163.279 259.83 161.934 258.216 158.68L255.258 152.817C252.568 147.734 251.439 145.179 248.884 140.068L240.815 145.098C240.815 147.787 240.815 149.024 240.815 151.633V155.99L241.084 184.23V186.435L214.189 187.78L214.458 149.589C214.458 145.232 214.458 143.054 214.458 138.831C214.458 135.012 214.458 133.103 214.297 129.284V126.406L241.192 126.029C241.192 128.719 241.192 130.252 240.977 133.049V141.601L248.319 137.164C252.568 134.474 256.388 132.108 259.669 129.875C262.95 127.643 265.048 126.298 266.123 125.787C266.945 125.318 267.867 125.05 268.813 125.007C270.373 125.007 271.153 125.465 271.153 126.406C271.153 126.649 271.094 126.888 270.982 127.104C270.87 127.319 270.707 127.504 270.507 127.643C269.57 128.274 268.581 128.823 267.549 129.284C265.693 130.198 261.605 132.511 255.258 136.303L251.224 138.535Z" fill="#FCFCFC"/>
<path d="M306.951 143.7C306.951 144.991 306.951 146.577 306.951 148.433V150.961C306.951 162.634 307.139 168.47 307.247 180.142L322.201 179.282L332.77 178.663C334.492 178.663 335.46 179.04 335.46 180.008C335.475 180.191 335.452 180.375 335.392 180.549C335.333 180.723 335.239 180.883 335.115 181.019C334.992 181.155 334.842 181.265 334.674 181.34C334.507 181.416 334.326 181.457 334.142 181.46C333.927 181.46 332.717 181.46 330.484 181.729L280.46 184.23V181.998C280.46 176.242 280.46 173.392 280.46 167.636C280.46 161.881 280.46 158.384 280.621 152.225C280.621 141.467 280.433 136.088 280.271 125.546L326.961 124.873C328.152 124.787 329.347 124.787 330.538 124.873C330.849 124.932 331.127 125.106 331.316 125.36C331.506 125.614 331.593 125.93 331.56 126.245C331.56 127.213 330.915 127.697 329.624 127.724H329.301H307.247C307.247 132.969 307.247 135.577 307.059 140.822H311.873L327.284 140.203H330.673C331.496 140.126 332.327 140.209 333.12 140.445C333.326 140.554 333.493 140.723 333.599 140.93C333.705 141.137 333.744 141.372 333.712 141.602C333.712 142.705 332.743 143.269 330.807 143.323H327.338L306.951 143.7Z" fill="#FCFCFC"/>
<path d="M339.977 171.643C340.34 171.679 340.691 171.788 341.01 171.964C341.329 172.139 341.609 172.378 341.833 172.665C344.136 174.901 346.885 176.624 349.901 177.721C352.905 178.894 356.119 179.435 359.342 179.308C362.784 179.12 364.505 178.071 364.505 176.134C364.368 174.619 363.735 173.192 362.703 172.073C361.493 170.594 358.615 167.689 354.07 163.306C349.901 159.471 346.068 155.287 342.613 150.799C340.327 147.745 339.024 144.069 338.875 140.257C338.892 137.712 339.564 135.215 340.827 133.006C342.089 130.797 343.899 128.95 346.082 127.643C351.296 124.284 357.39 122.552 363.591 122.667C368.214 122.595 372.799 123.512 377.038 125.357C378.46 125.958 379.791 126.754 380.992 127.724C382.068 128.611 382.633 129.364 382.633 129.983C382.62 130.146 382.572 130.305 382.494 130.449C382.415 130.593 382.306 130.718 382.175 130.817C381.921 131.061 381.586 131.204 381.234 131.22C380.392 131.052 379.623 130.629 379.029 130.01C377.168 128.52 375.042 127.398 372.762 126.702C370.37 125.854 367.85 125.427 365.312 125.438C364.056 125.414 362.817 125.74 361.735 126.379C361.323 126.604 360.976 126.934 360.731 127.335C360.486 127.736 360.35 128.195 360.337 128.665C360.481 130.163 361.082 131.581 362.058 132.726C363.807 134.981 365.751 137.078 367.867 138.993C373.58 144.122 378.885 149.688 383.735 155.641C385.614 158.208 386.673 161.283 386.774 164.462C386.75 166.952 386.002 169.381 384.623 171.455C383.099 173.786 381.043 175.721 378.625 177.103C373.177 180.186 367.052 181.876 360.794 182.024C354.853 182.479 348.913 181.139 343.743 178.178C340.3 176.134 338.579 174.494 338.579 173.257C338.542 173.058 338.549 172.854 338.6 172.659C338.652 172.464 338.745 172.282 338.875 172.127C339.014 171.974 339.184 171.851 339.374 171.768C339.564 171.684 339.77 171.642 339.977 171.643Z" fill="#FCFCFC"/>
</svg>
